<svg width="142" height="37" viewBox="0 0 142 37" fill="none" xmlns="http://www.w3.org/2000/svg">
<path d="M30 13.4545H0V0H3.33333C3.33333 5.57306 8.55668 10.0909 15 10.0909C21.4433 10.0909 26.6667 5.57306 26.6667 0H30V13.4545Z" fill="#5546FF"/>
<path d="M30 23.5455H0V37H3.33333C3.33333 31.4269 8.55668 26.9091 15 26.9091C21.4433 26.9091 26.6667 31.4269 26.6667 37H30V23.5455Z" fill="#5546FF"/>
<path d="M0 16.8182H3.33333V20.1818H0V16.8182Z" fill="#5546FF"/>
<path d="M6.66667 16.8182H10V20.1818H6.66667V16.8182Z" fill="#5546FF"/>
<path d="M13.3333 16.8182H16.6667V20.1818H13.3333V16.8182Z" fill="#5546FF"/>
<path d="M20 16.8182H23.3333V20.1818H20V16.8182Z" fill="#5546FF"/>
<path d="M26.6667 16.8182H30V20.1818H26.6667V16.8182Z" fill="#5546FF"/>
<path d="M45.2 32.5V4.5H55.92C57.6 4.5 59.0933 4.83333 60.4 5.5C61.7333 6.14 62.7867 7.06 63.56 8.26C64.3333 9.46 64.72 10.9133 64.72 12.62V13.14C64.72 14.82 64.32 16.2733 63.52 17.5C62.7467 18.7 61.6933 19.62 60.36 20.26C59.0267 20.9 57.5467 21.22 55.92 21.22H48.56V32.5H45.2ZM48.56 18.18H55.56C57.3467 18.18 58.76 17.74 59.8 16.86C60.84 15.9533 61.36 14.6867 61.36 13.06V12.66C61.36 11.0333 60.84 9.78 59.8 8.9C58.7867 7.99333 57.3733 7.54 55.56 7.54H48.56V18.18ZM79.3834 33.06C76.0501 33.06 73.3834 32.1 71.3834 30.18C69.4101 28.2333 68.4234 25.4067 68.4234 21.7V15.3C68.4234 11.5933 69.4101 8.78 71.3834 6.86C73.3834 4.91333 76.0501 3.94 79.3834 3.94C82.7434 3.94 85.4101 4.91333 87.3834 6.86C89.3834 8.78 90.3834 11.5933 90.3834 15.3V21.7C90.3834 25.4067 89.3834 28.2333 87.3834 30.18C85.4101 32.1 82.7434 33.06 79.3834 33.06ZM79.3834 30.06C81.8101 30.06 83.6901 29.34 85.0234 27.9C86.3568 26.4333 87.0234 24.4067 87.0234 21.82V15.18C87.0234 12.5933 86.3568 10.58 85.0234 9.14C83.6901 7.67333 81.8101 6.94 79.3834 6.94C76.9834 6.94 75.1168 7.67333 73.7834 9.14C72.4501 10.58 71.7834 12.5933 71.7834 15.18V21.82C71.7834 24.4067 72.4501 26.4333 73.7834 27.9C75.1168 29.34 76.9834 30.06 79.3834 30.06ZM93.3906 32.5L102.031 4.5H107.951L116.591 32.5H113.111L110.951 25.42H99.0306L96.8706 32.5H93.3906ZM99.8706 22.38H110.071L105.271 6.54H104.711L99.8706 22.38ZM120.786 32.5V4.5H131.506C133.186 4.5 134.679 4.83333 135.986 5.5C137.319 6.14 138.373 7.06 139.146 8.26C139.919 9.46 140.306 10.9133 140.306 12.62V13.14C140.306 14.82 139.906 16.2733 139.106 17.5C138.333 18.7 137.279 19.62 135.946 20.26C134.613 20.9 133.133 21.22 131.506 21.22H124.146V32.5H120.786ZM124.146 18.18H131.146C132.933 18.18 134.346 17.74 135.386 16.86C136.426 15.9533 136.946 14.6867 136.946 13.06V12.66C136.946 11.0333 136.426 9.78 135.386 8.9C134.373 7.99333 132.959 7.54 131.146 7.54H124.146V18.18Z" fill="#5546FF"/>
</svg>
